# xmcd
#
# Track frame offsets:
#	182
#	12390
#	45952
#	59727
#	72857
#	83902
#	95335
#	106580
#	119492
#	133317
#	143397
#	154167
#	173810
#	186922
#	198547
#	210030
#	224292
#	235947
#	250272
#	262295
#
# Disc length: 3667 seconds
#
# Revision: 1
# Processed by: cddbd v1.5.2PL0 Copyright (c) Steve Scherf et al.
# Submitted via: audiograbber 1.83.01
#
DISCID=1f0e5114
DTITLE=Various Artist - blues for lovers
DYEAR=1900
DGENRE=Blues
TTITLE0=john lee kooker - in the mood
TTITLE1=buddy guy - stone crazy
TTITLE2=little walter - you're so fine
TTITLE3=little milton - stand by me
TTITLE4=howlin' wolf - the red rooster
TTITLE5=etta james - stop the wedding
TTITLE6=sonny boy williamson - bring it on home
TTITLE7=muddy waters - i just want to make love to you
TTITLE8=john lee kooker - louise
TTITLE9=otis rush - i can't stop baby
TTITLE10=little walter - just you fool
TTITLE11=little milton - stormy monday
TTITLE12=buddy guy - let me love you baby
TTITLE13=howlin' wolf - howlin' for my baby
TTITLE14=sonny boy williamson - she got next to me
TTITLE15=lowell fulson - reconsider baby
TTITLE16=etta james - i'd rather go blind
TTITLE17=otis rush - so many roads, so many trains
TTITLE18=little milton - we're gonna make it
TTITLE19=muddy waters - i'm your hoochie coochie man
EXTD=
EXTT0=
EXTT1=
EXTT2=
EXTT3=
EXTT4=
EXTT5=
EXTT6=
EXTT7=
EXTT8=
EXTT9=
EXTT10=
EXTT11=
EXTT12=
EXTT13=
EXTT14=
EXTT15=
EXTT16=
EXTT17=
EXTT18=
EXTT19=
PLAYORDER=
